<?xml version="1.0" encoding="UTF-8"?>
<!-- Generator: visioncortex VTracer 0.6.3 -->
<svg version="1.1" xmlns="http://www.w3.org/2000/svg" width="512" height="512">
<path d="M0 0 C4.92 1.52 9.47 3.51 14.11 5.68 C14.9 6.05 15.69 6.42 16.51 6.8 C19.11 8.01 21.71 9.22 24.31 10.44 C26.15 11.29 27.99 12.15 29.83 13.01 C33.66 14.78 37.48 16.57 41.3 18.35 C49.23 22.04 57.16 25.71 65.09 29.39 C67.64 30.57 70.2 31.75 72.75 32.94 C84.37 38.32 96 43.7 107.62 49.06 C109.22 49.8 110.82 50.54 112.42 51.28 C119.93 54.74 127.43 58.2 134.94 61.65 C138.47 63.27 141.99 64.9 145.52 66.52 C147.18 67.28 148.85 68.05 150.51 68.81 C160.44 73.36 170.26 78.06 180 83 C179.36 102.06 178.26 121.08 177.04 140.11 C176.78 144.25 176.52 148.4 176.26 152.55 C175.82 159.56 175.37 166.58 174.93 173.59 C174.48 180.6 174.04 187.62 173.59 194.63 C173.54 195.48 173.49 196.33 173.43 197.21 C173.32 198.93 173.22 200.64 173.11 202.36 C172.08 218.67 171.04 234.99 170 251.3 C169.89 253.03 169.78 254.75 169.67 256.48 C169.62 257.34 169.56 258.19 169.51 259.08 C169.1 265.41 168.7 271.74 168.3 278.08 C167.78 286.26 167.26 294.45 166.73 302.64 C166.46 306.93 166.18 311.23 165.91 315.53 C165.66 319.51 165.41 323.49 165.15 327.47 C165.06 328.92 164.96 330.38 164.87 331.83 C164.75 333.82 164.62 335.81 164.49 337.79 C164.42 338.9 164.35 340.01 164.27 341.15 C164.04 343.55 163.67 345.69 163 348 C162.34 348 161.68 348 161 348 C152.34 329.85 143.7 311.7 135.44 293.38 C130.2 281.76 124.83 270.2 119.38 258.69 C119.01 257.92 118.65 257.16 118.28 256.38 C117.74 255.24 117.74 255.24 117.19 254.08 C116.48 252.57 115.76 251.06 115.05 249.55 C114.7 248.82 114.35 248.08 113.99 247.33 C109.21 237.22 104.51 227.08 99.82 216.93 C97.76 212.48 95.7 208.04 93.64 203.59 C92.86 201.9 92.07 200.22 91.29 198.53 C90.89 197.67 90.5 196.81 90.09 195.93 C85.16 185.3 80.23 174.66 75.31 164.02 C67.01 146.09 58.69 128.16 50.28 110.27 C44.68 98.32 39.12 86.36 33.57 74.39 C32.03 71.06 30.48 67.73 28.93 64.4 C26.55 59.27 24.17 54.15 21.79 49.01 C20.09 45.35 18.39 41.69 16.69 38.03 C14.62 33.58 12.55 29.12 10.48 24.66 C9.67 22.89 8.85 21.13 8.02 19.37 C6.87 16.89 5.72 14.42 4.58 11.94 C4.23 11.19 3.88 10.45 3.53 9.68 C2.05 6.48 0.78 3.44 0 0 Z " fill="#AC23F1" transform="translate(310,8)"/>
<path d="M0 0 C-1.36 4.32 -3.01 8.34 -4.95 12.43 C-5.24 13.04 -5.53 13.65 -5.82 14.28 C-6.45 15.6 -7.07 16.92 -7.7 18.24 C-9.41 21.84 -11.11 25.44 -12.8 29.04 C-13.16 29.79 -13.51 30.53 -13.87 31.3 C-17.11 38.21 -20.27 45.16 -23.41 52.11 C-29.94 66.6 -36.69 80.97 -43.51 95.32 C-48.3 105.39 -53.02 115.48 -57.68 125.61 C-61.3 133.48 -64.95 141.34 -68.62 149.19 C-74.47 161.69 -80.25 174.22 -86.03 186.75 C-91.68 199.02 -97.41 211.26 -103.18 223.48 C-108.35 234.41 -113.38 245.4 -118.36 256.42 C-123.64 268.09 -129.07 279.68 -134.57 291.25 C-140.58 303.91 -146.43 316.62 -152.18 329.39 C-155 335.66 -157.86 341.89 -161 348 C-161.66 348 -162.32 348 -163 348 C-163.87 344.92 -164.22 342.01 -164.41 338.82 C-164.48 337.77 -164.55 336.72 -164.62 335.64 C-164.69 334.49 -164.76 333.34 -164.83 332.15 C-164.91 330.93 -164.98 329.7 -165.06 328.44 C-165.27 325.06 -165.48 321.68 -165.69 318.3 C-165.91 314.68 -166.14 311.06 -166.36 307.44 C-166.75 301.23 -167.14 295.01 -167.52 288.79 C-168.12 279.06 -168.73 269.33 -169.34 259.6 C-169.39 258.79 -169.44 257.98 -169.49 257.14 C-169.7 253.87 -169.9 250.59 -170.1 247.31 C-170.36 243.18 -170.62 239.06 -170.88 234.93 C-172.27 212.47 -173.7 190.02 -175.15 167.57 C-175.24 166.29 -175.32 165.01 -175.4 163.69 C-176.18 151.68 -176.96 139.68 -177.75 127.67 C-178.03 123.35 -178.31 119.03 -178.59 114.71 C-178.72 112.73 -178.85 110.76 -178.98 108.78 C-179.15 106.11 -179.33 103.43 -179.5 100.76 C-179.55 100 -179.6 99.23 -179.66 98.45 C-179.98 93.29 -180.04 88.17 -180 83 C-152.98 69.1 -125.08 56.87 -97.5 44.15 C-90.2 40.79 -82.91 37.43 -75.62 34.06 C-74.44 33.51 -74.44 33.51 -73.23 32.96 C-57.56 25.73 -41.91 18.48 -26.27 11.22 C-24.69 10.49 -23.11 9.76 -21.54 9.03 C-18.02 7.4 -14.51 5.77 -11.01 4.12 C-9.83 3.57 -8.66 3.02 -7.45 2.45 C-6.43 1.98 -5.42 1.5 -4.38 1 C-2 0 -2 0 0 0 Z " fill="#F32CB0" transform="translate(202,8)"/>
<path d="M0 0 C64.68 0 129.36 0 196 0 C220 57 220 57 220 62 C219.46 62.29 218.92 62.58 218.36 62.88 C206.5 69.26 194.78 75.82 183.18 82.65 C176 86.86 168.77 90.96 161.5 95 C153.28 99.58 145.11 104.24 137 109 C128.45 114.01 119.87 118.98 111.25 123.88 C110.18 124.49 109.12 125.1 108.02 125.73 C107.03 126.29 106.04 126.85 105.02 127.43 C104.14 127.93 103.27 128.42 102.37 128.94 C100 130 100 130 96 130 C93.34 128.7 90.81 127.35 88.25 125.88 C87.07 125.21 87.07 125.21 85.87 124.53 C78.38 120.27 70.95 115.89 63.52 111.53 C55.91 107.07 48.22 102.76 40.5 98.5 C30.91 93.21 21.41 87.78 11.97 82.23 C-5.8 71.71 -5.8 71.71 -24 62 C-23.44 56.55 -22.06 52.12 -19.9 47.11 C-19.59 46.37 -19.28 45.62 -18.96 44.85 C-17.96 42.48 -16.95 40.12 -15.94 37.75 C-15.29 36.21 -14.64 34.67 -13.99 33.12 C-12 28.41 -10 23.71 -8 19 C-5.36 12.73 -2.72 6.46 0 0 Z " fill="#E9065D" transform="translate(158,373)"/>
<path d="M0 0 C0.66 0 1.32 0 2 0 C11.12 21.62 20.08 43.31 28.96 65.03 C31.92 72.25 34.88 79.46 37.84 86.68 C38.48 88.26 39.13 89.84 39.78 91.43 C43.91 101.5 48.06 111.56 52.23 121.61 C53.12 123.74 54 125.88 54.89 128.01 C56.61 132.16 58.33 136.31 60.06 140.45 C60.84 142.34 61.62 144.23 62.41 146.11 C62.77 146.99 63.14 147.86 63.51 148.76 C63.84 149.55 64.17 150.35 64.51 151.17 C64.8 151.86 65.09 152.56 65.39 153.28 C66 155 66 155 66 157 C23.1 157 -19.8 157 -64 157 C-62.07 151.2 -60.11 145.58 -57.77 139.96 C-57.46 139.21 -57.16 138.47 -56.84 137.7 C-55.83 135.26 -54.82 132.82 -53.81 130.38 C-53.09 128.63 -52.38 126.89 -51.66 125.15 C-50.17 121.54 -48.69 117.93 -47.2 114.33 C-45.14 109.35 -43.1 104.36 -41.05 99.38 C-40.74 98.6 -40.42 97.82 -40.09 97.02 C-39.44 95.45 -38.8 93.88 -38.16 92.3 C-25.54 61.5 -12.85 30.71 0 0 Z " fill="#DB1BA6" transform="translate(255,140)"/>
</svg>
