<?xml version="1.0" encoding="UTF-8"?>
<!-- Generator: visioncortex VTracer 0.6.3 -->
<svg version="1.1" xmlns="http://www.w3.org/2000/svg" width="512" height="512">
<path d="M0 0 C58.08 0 116.16 0 176 0 C181.14 8.35 186.19 16.69 191.06 25.19 C192.04 26.89 193.01 28.58 193.99 30.28 C194.99 32.03 196 33.77 197 35.52 C199.59 40.03 202.19 44.53 204.8 49.04 C211.9 61.34 218.97 73.66 226 86 C226.66 86 227.32 86 228 86 C228.84 84.47 228.84 84.47 229.7 82.91 C235.14 73.01 240.75 63.22 246.46 53.47 C250.93 45.85 255.35 38.21 259.75 30.56 C264.1 23.01 268.46 15.46 272.88 7.94 C273.49 6.88 273.49 6.88 274.12 5.81 C276.88 1.12 276.88 1.12 278 0 C336.08 0 394.16 0 454 0 C452.45 3.86 450.89 7.12 448.83 10.7 C448.19 11.81 447.56 12.93 446.9 14.07 C446.2 15.28 445.51 16.48 444.81 17.69 C444.09 18.94 443.37 20.2 442.65 21.46 C440.79 24.69 438.93 27.91 437.07 31.14 C435.43 34 433.78 36.86 432.13 39.71 C429.05 45.07 425.95 50.43 422.86 55.78 C419.74 61.19 416.62 66.59 413.5 72 C412.25 74.17 411 76.33 409.75 78.5 C409.13 79.57 408.51 80.64 407.88 81.75 C391 111 374.12 140.25 357.25 169.5 C356.63 170.57 356.01 171.65 355.37 172.75 C354.13 174.92 352.88 177.08 351.63 179.25 C348.49 184.69 345.35 190.13 342.21 195.57 C336.19 206.02 330.15 216.46 324.06 226.88 C318.99 235.55 313.98 244.27 309 253 C303.46 262.72 297.87 272.41 292.22 282.07 C286.06 292.59 279.98 303.15 273.89 313.72 C270.14 320.23 266.38 326.73 262.63 333.24 C259.48 338.71 256.33 344.17 253.18 349.64 C245.21 363.48 237.16 377.27 229 391 C227.68 391.33 226.36 391.66 225 392 C224.65 391.37 224.3 390.74 223.94 390.09 C216.29 376.33 208.52 362.67 200.56 349.09 C196.87 342.78 193.21 336.46 189.56 330.12 C188.94 329.04 188.32 327.96 187.68 326.85 C186.41 324.66 185.15 322.47 183.89 320.28 C180.76 314.85 177.63 309.43 174.5 304 C173.25 301.83 172 299.67 170.75 297.5 C170.13 296.43 169.51 295.36 168.88 294.25 C43.25 76.5 43.25 76.5 41.37 73.25 C40.13 71.08 38.88 68.92 37.63 66.75 C34.49 61.31 31.35 55.87 28.21 50.43 C21.92 39.5 15.6 28.58 9.25 17.69 C8.67 16.69 8.08 15.68 7.48 14.65 C5.01 10.42 2.53 6.2 0 2 C0 1.34 0 0.68 0 0 Z " fill="#40B782" transform="translate(29,60)"/>
<path d="M0 0 C27.72 0 55.44 0 84 0 C89.14 8.35 94.19 16.69 99.06 25.19 C100.04 26.89 101.01 28.58 101.99 30.28 C102.99 32.03 104 33.77 105 35.52 C107.59 40.03 110.19 44.53 112.8 49.04 C119.9 61.34 126.97 73.66 134 86 C134.66 86 135.32 86 136 86 C136.84 84.47 136.84 84.47 137.7 82.91 C143.14 73.01 148.75 63.22 154.46 53.47 C158.93 45.85 163.35 38.21 167.75 30.56 C172.1 23.01 176.46 15.46 180.88 7.94 C181.49 6.88 181.49 6.88 182.12 5.81 C184.88 1.12 184.88 1.12 186 0 C213.72 0 241.44 0 270 0 C268.35 4.96 266.49 8.86 263.81 13.25 C262.91 14.77 262 16.28 261.09 17.8 C260.35 19.04 260.35 19.04 259.59 20.31 C256.62 25.33 253.72 30.38 250.81 35.44 C250.18 36.54 249.54 37.65 248.88 38.79 C247.57 41.06 246.26 43.33 244.96 45.6 C241.81 51.07 238.65 56.54 235.5 62 C234.25 64.17 233 66.33 231.75 68.5 C229.25 72.83 226.75 77.17 224.25 81.5 C223.63 82.57 223.01 83.65 222.37 84.75 C221.13 86.92 219.88 89.08 218.63 91.25 C215.49 96.69 212.35 102.13 209.21 107.57 C203.19 118.02 197.15 128.46 191.06 138.88 C185.99 147.55 180.98 156.27 176 165 C170.47 174.71 164.89 184.38 159.24 194.02 C154.09 202.84 148.98 211.68 143.88 220.54 C142.99 222.09 142.99 222.09 142.08 223.67 C141.56 224.58 141.03 225.49 140.5 226.43 C139.02 228.97 137.52 231.49 136 234 C135.34 234 134.68 234 134 234 C85.25 149.5 85.25 149.5 83.37 146.25 C82.13 144.08 80.88 141.92 79.63 139.75 C76.49 134.31 73.35 128.87 70.21 123.43 C64.19 112.98 58.15 102.54 52.06 92.12 C46.64 82.86 41.3 73.54 35.98 64.21 C31.34 56.07 26.67 47.96 21.94 39.88 C20.81 37.94 19.68 36.01 18.55 34.08 C17.98 33.1 17.41 32.13 16.83 31.13 C15.92 29.58 15.92 29.58 15 28 C14.67 27.43 14.33 26.86 13.99 26.27 C11.87 22.64 9.76 19.02 7.65 15.39 C6.64 13.66 5.63 11.93 4.62 10.2 C4.02 9.16 3.41 8.11 2.79 7.04 C2.25 6.11 1.71 5.19 1.15 4.23 C0 2 0 2 0 0 Z " fill="#34495E" transform="translate(121,60)"/>
</svg>
